<svg width="512" height="512" viewBox="0 0 512 512" fill="none" xmlns="http://www.w3.org/2000/svg">
<path d="M214.999 337.5C181.5 353 162.5 319.5 173.499 298.5L414.498 57H307.499C281.999 57 270.497 10 307.497 0H486.997C507.997 4.5 512.069 14.6878 511.997 33.5V203C503.997 236.5 464.497 236.5 454.497 203V98L214.999 337.5Z" fill="white"/>
<path fill-rule="evenodd" clip-rule="evenodd" d="M204.5 57H85C38.0558 57 0 95.0558 0 142V427C0 473.944 38.0558 512 85 512H370C416.944 512 455 473.944 455 427V308C453.696 288.876 422.165 272.396 404.42 295.019C398.393 302.702 397.5 312.992 397.5 322.757V422.5C397.5 443 388.5 454.5 362 454.5L84.5 455C64 455 57 438.5 57 422.5V149.5C57 128 66 114.5 84.5 114.5H187.59C198.754 114.5 210.64 113.225 218.782 105.586C236.675 88.8015 228.184 63.2326 204.5 57Z" fill="white"/>
</svg>
