<svg width="203" height="40" viewBox="0 0 203 40" fill="none" xmlns="http://www.w3.org/2000/svg">
<g clip-path="url(#clip0_146_15)">
<path d="M44.7967 29.1114H47.5432C49.4871 29.1114 50.9669 28.616 51.9828 27.6253C53.0049 26.6283 53.5159 25.1453 53.5159 23.1764C53.5159 22.0978 53.3717 21.1666 53.0832 20.3828C52.8011 19.599 52.3841 18.972 51.8323 18.5017C51.2805 18.0251 50.6283 17.6771 49.8759 17.4576C49.1234 17.2319 48.2549 17.119 47.2704 17.119H44.7967V29.1114ZM43.5928 30.1178V16.122H47.3833C48.5245 16.122 49.5435 16.2568 50.4402 16.5264C51.3432 16.7961 52.127 17.2099 52.7917 17.768C53.4563 18.3198 53.9674 19.0503 54.3248 19.9596C54.6822 20.8625 54.8609 21.9191 54.8609 23.1293C54.8609 25.4181 54.2308 27.155 52.9703 28.3401C51.71 29.5253 49.9448 30.1178 47.6749 30.1178H43.5928ZM58.7493 30.1178V16.122H59.9532V30.1178H58.7493ZM70.4539 30.3342C69.6011 30.3342 68.8141 30.215 68.093 29.9767C67.3782 29.7322 66.7605 29.3936 66.2401 28.9609C65.7196 28.5282 65.2776 28.0141 64.9139 27.4184C64.5564 26.8164 64.2868 26.158 64.105 25.4431C63.9294 24.722 63.8416 23.9602 63.8416 23.1575C63.8416 21.7467 64.105 20.4988 64.6317 19.414C65.1584 18.323 65.9422 17.4608 66.9831 16.8274C68.0303 16.1941 69.2688 15.8774 70.6984 15.8774C72.2661 15.8774 73.6581 16.238 74.8746 16.9591L74.3385 17.9279C73.8243 17.6144 73.2411 17.3636 72.589 17.1754C71.9431 16.9811 71.3161 16.8839 70.7078 16.8839C69.7923 16.8839 68.974 17.0469 68.2529 17.373C67.5381 17.699 66.958 18.1505 66.5129 18.7274C66.0676 19.298 65.729 19.9564 65.497 20.7026C65.2713 21.4488 65.1584 22.2608 65.1584 23.1387C65.1584 24.073 65.2744 24.9164 65.5064 25.6689C65.7384 26.4213 66.0865 27.0735 66.5505 27.6253C67.0145 28.1708 67.6102 28.5941 68.3376 28.8951C69.0649 29.1898 69.9052 29.3371 70.8583 29.3371C71.8428 29.3371 72.9276 29.102 74.1127 28.6317V24.1545H70.642L70.7172 23.1105H75.232V29.2807C74.467 29.6758 73.724 29.9516 73.0028 30.1084C72.288 30.2589 71.4383 30.3342 70.4539 30.3342ZM79.3367 30.1178V16.122H80.5407V30.1178H79.3367ZM87.7962 30.1178V17.1566H83.3945V16.122H93.421V17.1566H89.0189V30.1178H87.7962ZM94.2338 30.1178L99.6985 16.122H100.855L106.123 30.1178H104.881L103.094 25.3679H97.2905L95.4281 30.1178H94.2338ZM97.7513 24.4838H102.661C101.25 20.433 100.451 18.0502 100.263 17.3353C100.187 17.6112 99.9398 18.3449 99.5197 19.5363C99.0997 20.7277 98.6983 21.8501 98.3157 22.9036L97.7513 24.4838ZM108.854 30.1178V16.122H110.067V29.055H116.36L116.303 30.1178H108.854ZM126.658 30.1178L122.914 16.3383H125.453L128.124 27.0609L131.266 16.4042H133.702L136.684 27.0986L139.412 16.3383H141.951L138.095 30.1178H135.452L132.508 20.0254L129.281 30.1178H126.658ZM144.636 30.1178V16.3383H147.184V30.1178H144.636ZM150.292 30.1178V28.4812L157.563 18.37H150.546V16.3383H160.573V18.1913L153.434 28.0862H160.62L160.61 30.1178H150.292ZM162.025 30.1178L167.095 16.3289H169.87L174.864 30.1178H172.249L170.885 26.2238H166.06L164.687 30.1178H162.025ZM166.7 24.3239H170.236C169.108 20.7058 168.528 18.8371 168.496 18.718L166.7 24.3239ZM177.135 30.1178V16.3007H182.242C182.938 16.3007 183.54 16.3321 184.048 16.3948C184.562 16.4575 185.048 16.5735 185.506 16.7428C185.97 16.9058 186.343 17.1284 186.625 17.4106C186.914 17.6928 187.139 18.0627 187.302 18.5205C187.472 18.972 187.556 19.5081 187.556 20.1289C187.556 21.9599 186.725 23.1638 185.064 23.7407C185.402 24.1232 185.823 24.8318 186.324 25.8664L188.375 30.1178H185.59L183.982 26.5154C183.374 25.2237 182.997 24.4587 182.853 24.2204C182.747 24.2141 182.393 24.211 181.79 24.211L179.655 24.1922V30.1178H177.135ZM182.468 22.3674C183.446 22.3674 184.148 22.195 184.575 21.8501C185.001 21.499 185.214 20.9378 185.214 20.1665C185.214 19.4893 184.998 18.9908 184.565 18.671C184.133 18.3512 183.471 18.1913 182.58 18.1913H179.655V22.3581C179.749 22.3581 180.216 22.3612 181.057 22.3674C181.897 22.3674 182.367 22.3674 182.468 22.3674ZM193.721 28.0768H195.545C197.119 28.0768 198.317 27.666 199.138 26.8446C199.96 26.0169 200.371 24.813 200.371 23.2328C200.371 21.5397 199.947 20.3107 199.101 19.5457C198.255 18.7744 196.978 18.3888 195.273 18.3888H193.721V28.0768ZM191.172 30.1178V16.3383H195.16C196.364 16.3383 197.442 16.4763 198.396 16.7522C199.349 17.0281 200.167 17.4451 200.85 18.0032C201.54 18.555 202.067 19.2698 202.431 20.1477C202.801 21.0193 202.985 22.0288 202.985 23.1764C202.985 25.4024 202.314 27.1174 200.973 28.3213C199.631 29.519 197.772 30.1178 195.395 30.1178H191.172Z" fill="#363636"/>
</g>
<path d="M3 18.6841C12.348 15.0075 17.1953 12.9833 26.7375 9.71013C30.4958 8.421 34.2844 7.22013 38.0852 6.06265C41.0979 5.1452 44.0952 4.14412 47.175 3.48626C48.1658 3.27461 50.5481 2.51506 50.2146 3.47179C49.6424 5.11286 47.5413 5.70865 46.075 6.64162C42.7098 8.78278 27.3101 17.4804 24.1901 19.292C21.6083 20.791 19.0063 22.2595 16.4899 23.8658C15.2347 24.6671 11.5459 26.6128 15.1872 26.254C16.9916 26.0763 23.9419 24.4693 25.2033 24.2566C26.6108 24.0193 28.0567 23.5111 29.4587 23.779C31.1911 24.11 27.8155 27.0015 26.477 28.1501C24.9829 29.4324 23.3652 30.5675 21.8887 31.87C20.5338 33.0652 17.4258 35.1618 18.8057 36.328C20.3339 37.6194 25.5268 36.0659 27.2297 35.8793" stroke="#363636" stroke-width="5" stroke-linecap="round"/>
<defs>
<clipPath id="clip0_146_15">
<rect width="159.416" height="14.4754" fill="white" transform="translate(43.5835 15.8669)"/>
</clipPath>
</defs>
</svg>
