<svg width="591" height="480" viewBox="0 0 591 480" fill="none" xmlns="http://www.w3.org/2000/svg">
<path d="M68.4997 206C26.113 151.159 32.26 92.4885 75.7556 58.8704C119.251 25.2524 177.114 34.6595 219.5 89.5001" stroke="#363636" stroke-width="20" stroke-linecap="round"/>
<path d="M82.8798 195.457C49.8093 152.67 50.5107 96.7213 84.4465 70.4921C118.382 44.2629 172.702 57.6859 205.772 100.473" stroke="white" stroke-width="20" stroke-linecap="round"/>
<path d="M323.432 129.949C314.316 136.547 307.95 146.47 306.065 158.523C302.854 156.976 299.678 155.691 296.547 154.667C282.412 150.042 267.757 150.402 256.354 158.307C248.705 163.609 244.057 171.232 242.068 179.757L190.066 132.33L189.818 132.105L189.561 131.89C168.095 114.002 142.268 118.662 127.042 132.696C119.51 139.639 113.958 149.379 113.111 160.483C112.24 171.897 116.474 183.212 125.737 192.408L281.77 357.356L186.621 375.684L185.849 375.833L185.098 376.061C158.659 384.093 147.112 404.936 147.021 424.343C146.977 433.642 149.55 442.987 154.695 450.419C159.887 457.921 168.545 464.414 179.958 464.414H412.958C447.731 464.414 488.303 440.383 519.264 407.136C550.681 373.398 575.458 326.794 575.458 276.914C575.458 263.849 569.84 250.04 562.461 237.053C554.876 223.703 544.37 209.418 532.405 194.976C508.46 166.074 477.438 135.08 448.854 107.6L448.153 106.926L447.371 106.349C427.803 91.8926 404.638 90.524 387.376 100.153C378.068 105.346 371.04 113.506 367.619 123.364C352.079 118.782 335.876 120.941 323.432 129.949Z" fill="white" stroke="#363636" stroke-width="30"/>
</svg>
